TITLE ""
FILE "Disc3Track60.mp3" MP3
  TRACK 01 AUDIO
    TITLE "Disc3Track60_01"
    INDEX 01 00:00:00
  TRACK 02 AUDIO
    TITLE "Disc3Track60_02"
    INDEX 01 00:01:27
  TRACK 03 AUDIO
    TITLE "Disc3Track60_03"
    INDEX 01 00:03:40
  TRACK 04 AUDIO
    TITLE "Disc3Track60_04"
    INDEX 01 00:05:02
  TRACK 05 AUDIO
    TITLE "Disc3Track60_05"
    INDEX 01 00:09:13
  TRACK 06 AUDIO
    TITLE "Disc3Track60_06"
    INDEX 01 00:09:45
  TRACK 07 AUDIO
    TITLE "Disc3Track60_07"
    INDEX 01 00:11:14
  TRACK 08 AUDIO
    TITLE "Disc3Track60_08"
    INDEX 01 00:12:06
  TRACK 09 AUDIO
    TITLE "Disc3Track60_09"
    INDEX 01 00:13:50
  TRACK 10 AUDIO
    TITLE "Disc3Track60_10"
    INDEX 01 00:16:21
  TRACK 11 AUDIO
    TITLE "Disc3Track60_11"
    INDEX 01 00:16:52
  TRACK 12 AUDIO
    TITLE "Disc3Track60_12"
    INDEX 01 00:18:26
  TRACK 13 AUDIO
    TITLE "Disc3Track60_13"
    INDEX 01 00:19:55
  TRACK 14 AUDIO
    TITLE "Disc3Track60_14"
    INDEX 01 00:21:28
  TRACK 15 AUDIO
    TITLE "Disc3Track60_15"
    INDEX 01 00:21:65
  TRACK 16 AUDIO
    TITLE "Disc3Track60_16"
    INDEX 01 00:23:47
  TRACK 17 AUDIO
    TITLE "Disc3Track60_17"
    INDEX 01 00:25:06
  TRACK 18 AUDIO
    TITLE "Disc3Track60_18"
    INDEX 01 00:26:61
  TRACK 19 AUDIO
    TITLE "Disc3Track60_19"
    INDEX 01 00:30:19
  TRACK 20 AUDIO
    TITLE "Disc3Track60_20"
    INDEX 01 00:30:51
  TRACK 21 AUDIO
    TITLE "Disc3Track60_21"
    INDEX 01 00:32:18
  TRACK 22 AUDIO
    TITLE "Disc3Track60_22"
    INDEX 01 00:34:52
  TRACK 23 AUDIO
    TITLE "Disc3Track60_23"
    INDEX 01 00:36:18
  TRACK 24 AUDIO
    TITLE "Disc3Track60_24"
    INDEX 01 00:38:25
  TRACK 25 AUDIO
    TITLE "Disc3Track60_25"
    INDEX 01 00:38:60
  TRACK 26 AUDIO
    TITLE "Disc3Track60_26"
    INDEX 01 00:40:10
  TRACK 27 AUDIO
    TITLE "Disc3Track60_27"
    INDEX 01 00:42:34
  TRACK 28 AUDIO
    TITLE "Disc3Track60_28"
    INDEX 01 00:43:57
  TRACK 29 AUDIO
    TITLE "Disc3Track60_29"
    INDEX 01 00:48:39
  TRACK 30 AUDIO
    TITLE "Disc3Track60_30"
    INDEX 01 00:48:74
  TRACK 31 AUDIO
    TITLE "Disc3Track60_31"
    INDEX 01 00:50:42
  TRACK 32 AUDIO
    TITLE "Disc3Track60_32"
    INDEX 01 00:51:41
  TRACK 33 AUDIO
    TITLE "Disc3Track60_33"
    INDEX 01 00:53:07
  TRACK 34 AUDIO
    TITLE "Disc3Track60_34"
    INDEX 01 00:55:41
  TRACK 35 AUDIO
    TITLE "Disc3Track60_35"
    INDEX 01 00:55:72
  TRACK 36 AUDIO
    TITLE "Disc3Track60_36"
    INDEX 01 00:57:32
  TRACK 37 AUDIO
    TITLE "Disc3Track60_37"
    INDEX 01 00:58:67
  TRACK 38 AUDIO
    TITLE "Disc3Track60_38"
    INDEX 01 01:00:24
  TRACK 39 AUDIO
    TITLE "Disc3Track60_39"
    INDEX 01 01:03:17
  TRACK 40 AUDIO
    TITLE "Disc3Track60_40"
    INDEX 01 01:03:48
  TRACK 41 AUDIO
    TITLE "Disc3Track60_41"
    INDEX 01 01:05:22
  TRACK 42 AUDIO
    TITLE "Disc3Track60_42"
    INDEX 01 01:07:09
  TRACK 43 AUDIO
    TITLE "Disc3Track60_43"
    INDEX 01 01:08:59
  TRACK 44 AUDIO
    TITLE "Disc3Track60_44"
    INDEX 01 01:09:23
  TRACK 45 AUDIO
    TITLE "Disc3Track60_45"
    INDEX 01 01:10:60
  TRACK 46 AUDIO
    TITLE "Disc3Track60_46"
    INDEX 01 01:12:20
  TRACK 47 AUDIO
    TITLE "Disc3Track60_47"
    INDEX 01 01:13:56
  TRACK 48 AUDIO
    TITLE "Disc3Track60_48"
    INDEX 01 01:18:42
  TRACK 49 AUDIO
    TITLE "Disc3Track60_49"
    INDEX 01 01:19:00
  TRACK 50 AUDIO
    TITLE "Disc3Track60_50"
    INDEX 01 01:20:39
  TRACK 51 AUDIO
    TITLE "Disc3Track60_51"
    INDEX 01 01:23:33
  TRACK 52 AUDIO
    TITLE "Disc3Track60_52"
    INDEX 01 01:24:74
  TRACK 53 AUDIO
    TITLE "Disc3Track60_53"
    INDEX 01 01:25:36
  TRACK 54 AUDIO
    TITLE "Disc3Track60_54"
    INDEX 01 01:27:13
  TRACK 55 AUDIO
    TITLE "Disc3Track60_55"
    INDEX 01 01:29:10
  TRACK 56 AUDIO
    TITLE "Disc3Track60_56"
    INDEX 01 01:30:61
  TRACK 57 AUDIO
    TITLE "Disc3Track60_57"
    INDEX 01 01:35:38
  TRACK 58 AUDIO
    TITLE "Disc3Track60_58"
    INDEX 01 01:35:68
  TRACK 59 AUDIO
    TITLE "Disc3Track60_59"
    INDEX 01 01:37:22
  TRACK 60 AUDIO
    TITLE "Disc3Track60_60"
    INDEX 01 01:39:56
  TRACK 61 AUDIO
    TITLE "Disc3Track60_61"
    INDEX 01 01:41:10
  TRACK 62 AUDIO
    TITLE "Disc3Track60_62"
    INDEX 01 01:41:51
  TRACK 63 AUDIO
    TITLE "Disc3Track60_63"
    INDEX 01 01:43:14
  TRACK 64 AUDIO
    TITLE "Disc3Track60_64"
    INDEX 01 01:45:21
  TRACK 65 AUDIO
    TITLE "Disc3Track60_65"
    INDEX 01 01:46:62
  TRACK 66 AUDIO
    TITLE "Disc3Track60_66"
    INDEX 01 01:51:22
